PathFileType        4      (X/Y/Z)      /Users/FranklinZhao/OpenSimProject/Simulation/Models/Rajapogal_2015/marker_data/trc/transformed_SN001_0010_10m_01.trc         
DataRate	CameraRate	NumFrames	NumMarkers	Units	OrigDataRate	OrigDataStartFrame	OrigNumFrames
200.0	200.0	4	72	mm	200.0	321	641
Frame#	Time	LPSIS			RPSIS			LICR			RICR			LASIS			RASIS			STER			XPRO			C7			T4			T8			T10			RUA1			RUA2			RUA3			RUA4			RHLE			RHME			RTEMP			RHEAD			LHEAD			LTEMP			RACR			LACR			LUA1			LUA2			LUA3			LUA4			LHLE			LHME			LFA1			LFA2			LFA3			LRSP			LUSP			RFA1			RFA2			RFA3			RRSP			RUSP			LTH1			LTH2			LTH3			LTH4			LFLE			LFME			LSK1			LSK2			LSK3			LSK4			LTAM			LFAL			LFCC			LFMT1			LFMT2			LFMT5			RTH1			RTH2			RTH3			RTH4			RFLE			RFME			RSK1			RSK2			RSK3			RSK4			RFAL			RTAM			RFCC			RFMT1			RFMT2			RFMT5			
		X1	Y1	Z1	X2	Y2	Z2	X3	Y3	Z3	X4	Y4	Z4	X5	Y5	Z5	X6	Y6	Z6	X7	Y7	Z7	X8	Y8	Z8	X9	Y9	Z9	X10	Y10	Z10	X11	Y11	Z11	X12	Y12	Z12	X13	Y13	Z13	X14	Y14	Z14	X15	Y15	Z15	X16	Y16	Z16	X17	Y17	Z17	X18	Y18	Z18	X19	Y19	Z19	X20	Y20	Z20	X21	Y21	Z21	X22	Y22	Z22	X23	Y23	Z23	X24	Y24	Z24	X25	Y25	Z25	X26	Y26	Z26	X27	Y27	Z27	X28	Y28	Z28	X29	Y29	Z29	X30	Y30	Z30	X31	Y31	Z31	X32	Y32	Z32	X33	Y33	Z33	X34	Y34	Z34	X35	Y35	Z35	X36	Y36	Z36	X37	Y37	Z37	X38	Y38	Z38	X39	Y39	Z39	X40	Y40	Z40	X41	Y41	Z41	X42	Y42	Z42	X43	Y43	Z43	X44	Y44	Z44	X45	Y45	Z45	X46	Y46	Z46	X47	Y47	Z47	X48	Y48	Z48	X49	Y49	Z49	X50	Y50	Z50	X51	Y51	Z51	X52	Y52	Z52	X53	Y53	Z53	X54	Y54	Z54	X55	Y55	Z55	X56	Y56	Z56	X57	Y57	Z57	X58	Y58	Z58	X59	Y59	Z59	X60	Y60	Z60	X61	Y61	Z61	X62	Y62	Z62	X63	Y63	Z63	X64	Y64	Z64	X65	Y65	Z65	X66	Y66	Z66	X67	Y67	Z67	X68	Y68	Z68	X69	Y69	Z69	X70	Y70	Z70	X71	Y71	Z71	X72	Y72	Z72	
321	1.6	595.385009765625	964.1775512695312	-265.6313781738283	592.3489990234375	970.9537963867188	-188.07249450683608	617.627685546875	1021.5559692382809	-354.62799072265636	613.991455078125	1050.231689453125	-93.37895965576192	792.9415893554688	948.9973144531249	-340.9968566894533	778.1701049804688	948.9651489257812	-79.46361541748064	755.7369384765625	1413.899291992188	-256.0400390625003	814.9281005859375	1206.755615234375	-244.43072509765642	623.0580444335938	1517.355102539062	-244.8992767333987	566.3475952148438	1408.1123046875	-234.79406738281276	563.3543090820312	1274.591186523438	-225.66043090820332	566.2355346679688	1229.482666015625	-228.29499816894554	679.3772583007812	1329.54541015625	19.139303207397216	750.8373413085938	1329.641235351562	-3.802853584289795	770.6289672851562	1261.431396484375	18.41254043579079	701.7635498046875	1250.390258789062	44.8225059509275	745.0386352539062	1168.485961914062	55.407283782958764	714.4485473632812	1138.659057617188	-15.54188919067404	787.2409057617188	1673.191650390625	-184.33946228027372	829.5439453125	1680.937622070312	-220.00291442871122	829.6200561523438	1674.421875	-302.2573547363284	779.968505859375	1657.660766601562	-339.5523986816409	687.33837890625	1487.851928710938	-68.9598464965823	640.2748413085938	1459.389770507812	-432.3521728515628	621.1954345703125	1294.008544921875	-472.6067810058596	547.1318969726562	1302.826049804688	-460.0186767578127	523.9165649414062	1219.399536132812	-463.1885681152346	597.3107299804688	1210.09375	-473.9622802734377	536.7396240234375	1141.521362304688	-462.9971618652346	512.4421997070312	1145.732299804688	-392.3502197265627	538.1348266601562	906.2046508789061	-440.26977539062517	539.6900024414062	911.3273315429686	-486.0708312988283	513.935791015625	888.3762817382811	-457.2539367675783	474.39306640625	869.0874023437499	-426.3177795410158	461.8052062988281	878.0856933593749	-496.91064453125017	924.0283813476562	1085.270629882812	71.05618286132793	937.5878295898438	1095.965698242188	28.453750610351356	949.525634765625	1065.477905273438	39.88149261474589	983.6920166015625	1026.81591796875	8.256434440612605	957.9243774414062	1005.281433105469	64.34480285644513	846.2064208984375	694.2785644531249	-398.800750732422	800.8849487304688	672.7814331054686	-388.7687988281251	841.669677734375	574.7774658203124	-369.2991638183595	896.5765991210938	606.0941772460936	-384.2440795898439	910.7111206054688	512.1655883789061	-357.665008544922	916.36376953125	499.07092285156244	-238.7379913330079	961.2915649414062	340.1916198730468	-384.59381103515625	904.201171875	319.9341735839843	-370.29260253906256	933.6312255859375	238.52890014648435	-355.87805175781256	991.082763671875	263.28485107421875	-372.9487609863282	1066.062866210938	107.23964691162105	-262.3121948242188	1027.0322265625	75.4692764282226	-331.2831726074219	1018.379821777344	29.29357147216792	-272.0926513671875	1207.52880859375	99.78791046142572	-298.1904602050781	1200.03759765625	95.98469543457026	-327.6507873535156	1167.232055664062	72.03407287597649	-366.3407897949219	602.4127197265625	735.9315185546875	-53.857917785644666	648.7053833007812	697.8428344726562	-55.111652374267706	619.6961669921875	617.0547485351562	-70.74111175537121	561.5853881835938	644.8604736328125	-74.99043273925793	525.3012084960938	538.5881958007812	-95.28205871582041	533.7001342773438	510.13638305664057	-213.35954284667977	387.2079467773438	410.7501525878906	-86.25192260742195	444.1015319824219	397.7182922363281	-76.78562164306648	394.3788146972656	302.4272766113281	-94.84623718261724	342.8892822265625	341.1016845703125	-99.2585067749024	243.8856658935547	164.43806457519528	-144.85073852539062	293.9744567871094	159.21105957031247	-213.43280029296884	208.8374328613281	163.40452575683588	-194.97288513183594	346.9110412597656	30.680807113647425	-186.45849609375	351.3051147460938	29.61932945251462	-146.5126800537109	310.7080688476562	37.66482162475584	-102.7142791748047	
322	1.605	606.710693359375	964.3758544921875	-265.85333251953136	603.3290405273438	971.4263305664062	-188.27912902832048	628.461669921875	1021.7891845703119	-354.8070373535158	625.454833984375	1050.54931640625	-93.5442886352541	804.1473388671875	949.7455444335936	-341.93066406250017	789.3175659179688	949.1362915039062	-80.30464935302751	765.3402709960938	1414.334350585938	-256.99655151367216	825.3246459960938	1207.454467773438	-245.13572692871114	632.2771606445312	1517.326171875	-245.83117675781278	576.0077514648438	1407.869140625	-235.80470275878935	573.5745849609375	1274.472900390625	-226.13461303710963	576.637939453125	1229.215209960938	-228.78257751464864	688.0328979492188	1329.750122070312	18.127819061279055	759.5464477539062	1329.734252929688	-4.6421537399294435	779.1552124023438	1261.673706054688	17.73188400268532	710.1405639648438	1250.614379882812	43.828468322753686	753.2703857421875	1168.599975585938	54.40502929687479	722.8658447265625	1139.13232421875	-16.65052032470724	796.0567016601562	1673.41552734375	-185.15353393554722	838.3558349609375	1680.98876953125	-220.82870483398472	838.6798706054688	1674.839111328125	-302.9260253906253	789.0521850585938	1658.19921875	-340.2520141601565	696.3704223632812	1488.217163085938	-69.93912506103543	649.7256469726562	1459.389892578125	-433.2510375976565	630.9973754882812	1293.989624023438	-473.3872985839846	556.5465087890625	1302.90673828125	-460.86416625976585	534.0067749023438	1219.265380859375	-464.17898559570335	607.2949829101562	1210.057006835938	-474.7397460937502	546.6607666015625	1141.126220703125	-463.7329711914064	522.3987426757812	1145.764892578125	-393.2083435058596	548.5935668945312	906.1079711914061	-440.87179565429705	550.1475219726562	911.3870239257811	-486.67022705078136	524.502685546875	888.2894287109374	-457.94564819335955	484.9979858398438	868.7372436523436	-427.14868164062517	472.4317932128906	877.8455200195311	-497.73809814453136	931.712890625	1084.425415039062	70.52265167236308	945.5150146484375	1095.00244140625	27.887596130370888	957.2362670898438	1064.411010742188	39.51138305664042	991.3794555664062	1025.633544921875	8.035187721252253	965.2215576171875	1004.243469238281	63.93045043945293	857.3795776367188	695.2008666992186	-398.549041748047	812.0884399414062	673.6736450195311	-388.61441040039074	852.80029296875	575.3396606445311	-369.80191040039074	907.7095947265625	606.7616577148436	-384.6575622558595	921.382568359375	512.2553710937499	-357.4608154296876	927.4954223632812	499.50952148437494	-239.782196044922	969.497802734375	338.85122680664057	-384.41268920898443	911.8375854492188	319.7067565917968	-371.38470458984386	939.4642333984375	237.71018981933585	-356.65612792968756	997.68896484375	261.56155395507807	-372.6479797363282	1068.455322265625	103.88336181640615	-261.6936340332031	1029.39111328125	72.98241424560541	-331.161376953125	1019.529357910156	27.12716674804683	-272.1440734863281	1209.981811523438	94.50417327880854	-297.0234985351562	1202.466430664062	90.64608001708979	-326.5831909179688	1169.45166015625	67.36099243164055	-365.3135375976562	613.4804077148438	735.665771484375	-54.586051940918104	659.8304443359375	697.69580078125	-55.42160797119154	631.0069580078125	616.7969360351562	-70.71739196777355	572.6209716796875	644.2975463867188	-75.49508666992199	537.141845703125	538.0039672851562	-95.48420715332041	546.3994750976562	509.02386474609375	-213.66906738281259	397.5667724609375	412.1524353027344	-86.54914093017585	454.1967163085938	398.3569030761719	-76.28501892089851	402.8346557617188	303.6360473632812	-94.23532867431646	352.1719665527344	343.220703125	-99.09731292724615	250.5135498046875	168.18038940429688	-144.29048156738284	300.7587280273438	161.48780822753906	-212.43426513671884	215.9758453369141	168.44497680664057	-194.73971557617193	347.3666687011719	30.643585205078086	-186.5954895019531	352.2004699707031	29.45332145690915	-146.5428009033203	312.3928527832031	38.48292922973631	-102.6056900024414	
323	1.61	618.1011962890625	964.5936279296875	-265.962097167969	614.8866577148438	971.46630859375	-188.52189636230486	639.443359375	1021.8577270507809	-354.928649902344	637.001953125	1050.738403320312	-93.75889587402364	815.4464111328125	950.5216674804686	-342.80551147460955	800.42578125	949.3313598632812	-81.09185791015642	775.0191650390625	1414.8701171875	-257.7128906250003	835.8184814453125	1208.332153320312	-246.04510498046903	641.6442260742188	1517.302124023438	-246.82580566406278	585.7314453125	1407.681030273438	-236.56001281738307	583.813232421875	1274.36083984375	-226.82939147949241	587.1303100585938	1229.175415039062	-229.25936889648463	696.2984008789062	1330.114868164062	17.181947708129634	768.1744995117188	1330.036499023438	-5.198853492737061	787.6056518554688	1261.853515625	17.18841743469215	718.1304321289062	1250.83740234375	42.707244873046655	761.4437866210938	1168.884887695312	53.358749389648224	731.1657104492188	1139.528686523438	-17.86373138427755	805.0020751953125	1673.70947265625	-185.92576599121122	847.2319946289062	1681.456665039062	-221.6714019775394	847.6497192382812	1675.27880859375	-303.5745239257815	798.09765625	1658.4814453125	-341.1156311035159	705.363037109375	1488.45166015625	-71.06241607666043	659.2499389648438	1459.400756835938	-434.0943908691409	640.9456787109375	1293.885498046875	-474.2203369140627	566.507568359375	1302.80517578125	-461.8345336914064	543.8950805664062	1219.00634765625	-464.9637145996096	617.3483276367188	1210.007690429688	-475.47024536132835	556.8394775390625	1141.14697265625	-464.5274047851564	532.5440063476562	1145.794799804688	-393.9943847656252	559.2655639648438	906.2563476562499	-441.51550292968767	560.8872680664062	911.4246826171874	-487.40975952148455	535.2603759765625	888.1456909179686	-458.76889038085955	495.8431091308594	868.5560302734374	-427.7049865722658	483.2483825683594	877.5054321289061	-498.471374511719	939.3128051757812	1083.38037109375	70.02681732177714	953.2957153320312	1093.903930664062	27.434856414794716	964.81884765625	1063.29833984375	39.19235992431622	998.997802734375	1024.409301757812	7.637647628783991	972.4044189453125	1003.071350097656	63.60599899291974	868.5775146484375	695.2581787109374	-396.27993774414074	823.139892578125	674.3791503906249	-388.62844848632824	863.7586059570312	575.8883666992186	-370.3981933593751	918.7510986328125	607.2532348632811	-384.7506713867189	931.7748413085938	511.77398681640614	-357.22671508789074	938.0438842773438	499.26306152343744	-240.7120056152345	977.4287719726562	337.4799499511718	-384.35861206054693	919.168212890625	319.21807861328114	-372.29644775390625	945.1983642578125	236.76275634765614	-357.5271301269532	1004.027709960938	259.66430664062494	-372.30355834960943	1070.413452148438	100.52424621582026	-261.1866760253906	1031.486083984375	70.39376831054682	-330.9537658691406	1019.715393066406	25.91411399841304	-272.3663940429688	1212.135986328125	89.4921264648437	-295.5731811523438	1204.747192382812	85.47975921630854	-325.2856750488281	1171.368530273438	62.88189315795891	-364.2931518554688	624.7548217773438	735.2749633789062	-55.36606597900405	671.1474609375	697.44677734375	-55.77104568481458	642.6572875976562	616.290771484375	-70.8248977661134	584.2271728515625	643.7120361328125	-76.10524749755871	549.389404296875	537.1401977539062	-95.58252716064463	559.424072265625	507.47064208984375	-213.8715362548829	408.3645324707031	413.3178100585938	-86.63563537597663	464.6347961425781	398.7053833007812	-76.1622619628907	411.8111877441406	304.732177734375	-93.5499114990235	361.8651733398438	345.0905456542969	-99.1277465820313	257.700439453125	171.61984252929688	-143.48257446289062	307.9606628417969	163.47380065917966	-211.46217346191412	223.6568298339844	173.29263305664057	-194.37947082519534	348.1087341308594	30.560281753540004	-186.7716064453125	353.0618286132812	29.235126495361303	-146.5563507080078	314.1929321289062	39.30277252197264	-102.72319793701172	
324	1.615	629.628662109375	964.98486328125	-266.22924804687517	626.1234741210938	971.8060302734375	-188.75273132324236	650.4732666015625	1021.9771118164059	-355.21118164062517	648.549072265625	1050.920532226562	-93.88394927978536	826.9349975585938	951.3132934570311	-343.7496643066408	811.6268310546875	949.4337158203125	-82.12658691406267	784.5472412109375	1415.273193359375	-258.6653137207034	846.4473876953125	1209.1318359375	-246.82997131347682	650.9669189453125	1517.242553710938	-247.79205322265648	595.3710327148438	1407.203857421875	-237.63511657714866	594.0597534179688	1273.995849609375	-227.66835021972682	597.7395629882812	1229.018432617188	-229.78564453125023	704.822509765625	1330.41357421875	16.071590423583736	776.867431640625	1330.160034179688	-5.837028980255371	795.9871215820312	1261.932739257812	16.4536094665525	726.6329956054688	1250.961669921875	41.63599777221657	769.5950317382812	1168.96728515625	52.319782257079865	739.2200317382812	1139.84814453125	-18.89934539794943	813.927001953125	1673.932739257812	-186.5113677978519	856.0217895507812	1681.871215820312	-222.2991027832034	856.565673828125	1675.566772460938	-304.2314453125003	807.1194458007812	1659.072998046875	-341.7616577148441	714.349609375	1488.7294921875	-72.06938934326199	668.76025390625	1459.378662109375	-434.9863281250003	650.913818359375	1293.864990234375	-475.0992126464846	576.3530883789062	1302.62255859375	-462.8372192382814	554.0140991210938	1218.859008789062	-465.8054809570314	627.50244140625	1209.964721679688	-476.2669677734377	567.0423583984375	1141.07958984375	-465.3205261230471	542.845703125	1145.473876953125	-394.67446899414085	570.1762084960938	906.1237792968749	-442.45263671875017	571.8133544921875	911.2534790039061	-488.13916015625017	546.2806396484375	887.9984741210936	-459.312927246094	506.864501953125	868.2429809570311	-428.65991210937517	494.3552551269531	877.1619262695311	-499.2325744628908	946.8147583007812	1082.387817382812	69.4912109374998	961.04638671875	1092.735473632812	26.993864059448036	972.3482666015625	1062.09912109375	38.76675033569317	1006.304443359375	1022.857238769531	7.41754198074322	979.5051879882812	1001.925354003906	63.28891754150373	879.5584716796875	695.7330322265624	-395.6857910156251	833.9465942382812	674.7732543945311	-388.9371032714845	874.3993530273438	576.1223754882811	-371.1763305664063	929.5313720703125	607.6799926757811	-384.66751098632824	941.6400146484375	511.12161254882807	-356.8348083496095	947.7872314453125	498.5301208496093	-241.46783447265628	985.0790405273438	335.96633911132807	-384.32073974609386	926.35400390625	318.74389648437494	-373.31121826171886	950.5852661132812	235.63356018066403	-358.24603271484386	1010.187133789062	257.60998535156244	-372.13900756835943	1072.299194335938	97.20104980468746	-260.526611328125	1033.87060546875	67.70437622070307	-330.4405517578125	1020.207336425781	24.88365745544429	-272.7176818847656	1213.966674804688	84.11739349365229	-293.9883117675781	1206.92724609375	80.19342803955072	-323.6581420898438	1173.444213867188	57.7530899047851	-363.127197265625	636.1063842773438	734.467041015625	-56.53171920776381	682.7108764648438	696.8320922851562	-56.30223464965833	654.6741333007812	615.6085205078125	-70.70313262939464	596.4544067382812	642.6820678710938	-76.64658355712902	562.081787109375	535.8150634765625	-95.72430419921885	572.9337768554688	505.64028930664057	-214.0078887939454	419.6513977050781	414.2537841796875	-86.84532928466804	475.5549926757812	398.8004455566406	-75.89115905761726	421.345458984375	305.524658203125	-93.05974578857428	372.0640563964844	346.6185913085938	-99.4707641601563	265.3577270507812	174.99745178222656	-142.62377929687503	315.7814331054688	165.14189147949216	-210.40626525878912	231.8809356689453	178.07490539550778	-194.20320129394534	348.9202270507812	30.581991195678675	-187.0064849853516	353.9101867675781	28.882684707641573	-146.5834350585938	316.1097717285156	40.02459716796873	-103.08410644531251	
